<?xml version="1.0" encoding="utf-8"?>
<!DOCTYPE svg PUBLIC "-//W3C//DTD SVG 20010904//EN" "http://www.w3.org/TR/2001/REC-SVG-20010904/DTD/svg10.dtd">
<svg version="1.0" xmlns="http://www.w3.org/2000/svg" width="202pt" height="202pt" viewBox="0 0 202 202" style="" preserveAspectRatio="xMidYMid meet">
<g fill="#2954FFFF" stroke="#2954FFFF">
<path d="M 87.500 8.008 C 64.411 11.512 41.467 24.658 27.337 42.479 C 12.685 60.958 6.192 81.580 7.261 106.239 C 9.151 149.866 40.931 186.090 84.320 194.075 C 90.641 195.238 112.720 195.614 113.758 194.576 C 114.074 194.259 112.091 194.000 109.350 194.000 C 95.030 194.000 76.864 187.909 62.000 178.124 C 54.512 173.195 41.684 160.811 36.402 153.411 C 26.089 138.967 20.843 122.880 20.777 105.500 C 20.725 91.746 22.601 83.749 28.989 70.500 C 39.437 48.832 58.727 32.569 80.623 26.968 C 90.186 24.523 105.618 24.339 114.356 26.567 C 145.734 34.567 170.015 66.637 170.080 100.165 C 170.113 117.226 164.598 131.328 153.500 142.563 C 140.168 156.059 127.475 157.427 116.415 146.559 C 111.810 142.034 110.663 139.956 105.559 126.887 L 99.852 112.273 119.472 85.887 L 139.092 59.500 123.296 59.276 L 107.500 59.052 89.145 83.656 L 70.791 108.260 78.029 126.880 C 82.010 137.121 86.894 148.874 88.882 152.998 C 97.918 171.744 117.265 182.137 137.518 179.125 C 162.756 175.371 182.535 156.121 191.639 126.451 C 194.149 118.269 194.384 116.125 194.376 101.500 C 194.365 83.000 192.766 75.328 185.950 61.072 C 175.197 38.578 155.752 20.934 132.746 12.792 C 118.277 7.672 101.444 5.892 87.500 8.008 "/></g>
<g fill="#2954FFFF" stroke="#2954FFFF">
<path d="M 54.000 59.426 C 54.000 59.660 50.357 73.439 45.905 90.047 C 38.237 118.650 37.828 120.699 38.155 128.897 C 38.447 136.209 38.997 138.554 41.705 144.025 C 43.467 147.586 46.854 152.699 49.230 155.386 L 53.551 160.272 66.776 110.886 C 74.049 83.724 80.000 60.938 80.000 60.250 C 80.000 59.314 76.733 59.000 67.000 59.000 C 59.850 59.000 54.000 59.192 54.000 59.426 "/></g>
</svg>
